<?xml version="1.0" encoding="UTF-8"?>
<svg version="1.1" xmlns="http://www.w3.org/2000/svg" width="420" height="96">
<path d="M0 0 C1.20152206 -0.00953201 2.40304413 -0.01906403 3.64097595 -0.02888489 C4.93064774 -0.02797348 6.22031952 -0.02706207 7.54907227 -0.02612305 C8.89518871 -0.03001387 10.24130394 -0.03434934 11.5874176 -0.03910828 C14.40418483 -0.04655501 17.22082669 -0.04629047 20.03759766 -0.04101562 C23.63660306 -0.03522225 27.23509361 -0.05215566 30.83401394 -0.0753603 C33.61280792 -0.09013446 36.39147895 -0.09096439 39.17030525 -0.08785057 C41.13890475 -0.08860949 43.10748525 -0.10245156 45.07603455 -0.11653137 C46.28070877 -0.11030258 47.485383 -0.10407379 48.7265625 -0.09765625 C50.30944313 -0.09860039 50.30944313 -0.09860039 51.92430115 -0.0995636 C56.38663256 0.45638882 59.61879048 1.94025962 62.77742004 5.15971375 C67.16392263 13.22293658 62.63495149 24.67718524 60.38500977 32.84887695 C60.01502092 34.22624511 59.64587103 35.60383886 59.2775116 36.98164368 C58.50707712 39.85078049 57.72690147 42.71703056 56.93945312 45.58154297 C55.93698689 49.23117209 54.9590105 52.88683894 53.98820972 56.54500103 C53.23172938 59.38484667 52.46248765 62.22111644 51.68945885 65.05649757 C51.32405436 66.40250861 50.96246004 67.74956064 50.60495949 69.09769249 C47.84471444 79.46311138 44.97230849 87.99900067 35.92797852 94.2746582 C31.74472402 95.93859743 28.23064145 96.52966406 23.74243164 96.54931641 C22.54098511 96.55884842 21.33953857 96.56838043 20.10168457 96.57820129 C18.81717407 96.57728989 17.53266357 96.57637848 16.20922852 96.57543945 C14.86454131 96.57933155 13.51985532 96.58366727 12.1751709 96.58842468 C9.36437992 96.59586362 6.55371461 96.59561212 3.74291992 96.59033203 C0.15179019 96.58453316 -3.43882448 96.60148914 -7.02986908 96.6246767 C-9.8043719 96.63944877 -12.57875156 96.64028119 -15.35328674 96.63716698 C-17.3174568 96.63792562 -19.28160782 96.65176534 -21.24572754 96.66584778 C-23.04789734 96.65650459 -23.04789734 96.65650459 -24.88647461 96.64697266 C-25.93871216 96.64760208 -26.99094971 96.64823151 -28.07507324 96.64888 C-31.63551547 96.20429605 -34.01474167 95.13268175 -37.07202148 93.2746582 C-40.80948232 87.66846696 -39.61514287 80.32581646 -38.47058105 73.89587402 C-37.63099948 70.37575138 -36.69587387 66.8979846 -35.71264648 63.4152832 C-35.36699646 62.14545593 -35.02134644 60.87562866 -34.66522217 59.56732178 C-33.9388495 56.90224513 -33.2017971 54.2404623 -32.45581055 51.58081055 C-31.50716871 48.19762735 -30.57948474 44.80914797 -29.65896988 41.41821671 C-28.76856702 38.14408219 -27.86552187 34.87350144 -26.96264648 31.6027832 C-26.63331116 30.3994635 -26.30397583 29.1961438 -25.96466064 27.95635986 C-20.92512257 10.02697176 -20.92512257 10.02697176 -15.13452148 5.3371582 C-14.16192383 4.51924805 -14.16192383 4.51924805 -13.16967773 3.68481445 C-8.86034555 0.78785185 -5.15479415 0.02252356 0 0 Z " fill="#0C4673" transform="translate(39.072021484375,-0.274658203125)"/>
<path d="M0 0 C1.19051971 -0.00137466 2.38103943 -0.00274933 3.6076355 -0.00416565 C4.9153038 -0.00057037 6.22297211 0.0030249 7.57026672 0.00672913 C8.95985411 0.00701117 10.34944164 0.00685293 11.73902893 0.00628662 C15.51353731 0.00599932 19.28801401 0.01188525 23.06251502 0.01886058 C27.00632553 0.02510524 30.95013673 0.0256988 34.89395142 0.02688599 C42.36308603 0.02999601 49.83220603 0.03820499 57.3013342 0.04823548 C65.80426295 0.05940679 74.3071924 0.06490964 82.81012666 0.06993091 C100.30220329 0.08038786 117.79426569 0.09798097 135.28633118 0.12025452 C134.32869219 1.24476295 133.37002322 2.3683943 132.41091919 3.49165344 C131.87717084 4.11746937 131.34342249 4.74328529 130.79349995 5.38806534 C129.66467064 6.68542895 128.48951842 7.94273314 127.29292297 9.1778717 C125.9914045 11.19191221 125.9914045 11.19191221 126.86372375 13.96107483 C127.5157074 15.56354065 127.5157074 15.56354065 128.18086243 17.19837952 C128.87212219 18.93861389 128.87212219 18.93861389 129.5773468 20.71400452 C130.07943665 21.92056702 130.58152649 23.12712952 131.09883118 24.37025452 C131.58931946 25.59228577 132.07980774 26.81431702 132.5851593 28.07337952 C133.80151422 31.09655291 135.03569464 34.11113763 136.28633118 37.12025452 C138.3649042 33.45605069 139.3753519 29.55184799 140.45039368 25.51087952 C140.64732819 24.78406982 140.8442627 24.05726013 141.04716492 23.3084259 C141.6725487 20.99675885 142.29201516 18.68355372 142.91133118 16.37025452 C143.33542037 14.79853466 143.75989523 13.2269188 144.18476868 11.65541077 C145.22309474 7.8115493 146.25611834 3.96629802 147.28633118 0.12025452 C150.58633118 0.12025452 153.88633118 0.12025452 157.28633118 0.12025452 C155.23424542 9.10284633 153.08359231 18.04920743 150.70820618 26.95228577 C150.48975037 27.77155548 150.27129456 28.5908252 150.04621887 29.43492126 C149.14759067 32.79662565 148.24553807 36.15738512 147.33906555 39.51698303 C146.6661351 42.01511888 145.999284 44.51481555 145.33320618 47.01478577 C145.1270166 47.77201431 144.92082703 48.52924286 144.70838928 49.30941772 C143.79912021 52.73496846 143.28633118 55.54721312 143.28633118 59.12025452 C135.03633118 59.12025452 126.78633118 59.12025452 118.28633118 59.12025452 C113.33633118 46.25025452 108.38633118 33.38025452 103.28633118 20.12025452 C101.00303899 23.54519279 100.15557991 26.85128711 99.15742493 30.78041077 C98.96286209 31.5260881 98.76829926 32.27176544 98.56784058 33.04003906 C97.94781285 35.41959103 97.33542522 37.80102228 96.72383118 40.18275452 C96.10747926 42.56772672 95.48951477 44.95226044 94.86911011 47.33618164 C94.48361189 48.81902983 94.10066924 50.30254519 93.72052002 51.78677368 C92.39748887 56.89793912 92.39748887 56.89793912 91.28633118 59.12025452 C87.98633118 59.12025452 84.68633118 59.12025452 81.28633118 59.12025452 C83.09099135 49.10127907 85.79402952 39.32516198 88.41133118 29.49525452 C88.88426316 27.71017129 89.35692176 25.92501562 89.82929993 24.13978577 C90.97798727 19.79895675 92.13227569 15.4596735 93.28633118 11.12025452 C87.01633118 11.12025452 80.74633118 11.12025452 74.28633118 11.12025452 C74.0620343 12.53951233 73.83773743 13.95877014 73.60664368 15.42103577 C72.01314969 24.18525269 69.5229234 32.72664539 67.16133118 41.30775452 C66.68825033 43.04006049 66.21559071 44.77248156 65.74336243 46.50502014 C64.59664169 50.71167462 63.4413229 54.91582894 62.28633118 59.12025452 C56.34633118 59.12025452 50.40633118 59.12025452 44.28633118 59.12025452 C45.41133118 50.12025452 45.41133118 50.12025452 46.40962219 46.54017639 C46.62977493 45.73995056 46.84992767 44.93972473 47.07675171 44.11524963 C47.312202 43.28158875 47.54765228 42.44792786 47.79023743 41.58900452 C48.03297897 40.7124823 48.27572052 39.83596008 48.52581787 38.93287659 C49.29488468 36.16050466 50.07172097 33.39038131 50.84883118 30.62025452 C51.37473871 28.72977324 51.90013446 26.83914951 52.42500305 24.94837952 C53.70620105 20.33733639 54.99436692 15.7282921 56.28633118 11.12025452 C49.20592018 11.18760277 42.12604631 11.27754366 35.0460968 11.38270569 C32.64088846 11.41582415 30.23560484 11.44389618 27.83027649 11.46669006 C24.35957459 11.50047693 20.88955444 11.55280547 17.41914368 11.60853577 C15.82321884 11.61812065 15.82321884 11.61812065 14.1950531 11.62789917 C4.48160343 11.81634276 -3.8686129 13.27751881 -11.02226257 20.17103577 C-15.83783496 25.7206215 -17.78368313 31.79675761 -17.71366882 39.12025452 C-17.49715559 42.03936912 -17.49715559 42.03936912 -15.71366882 44.12025452 C-9.63617742 46.90263809 -4.34796869 47.62941312 2.28633118 47.80775452 C3.15644836 47.84191467 4.02656555 47.87607483 4.92304993 47.91127014 C7.04371932 47.99283435 9.16500009 48.0582398 11.28633118 48.12025452 C11.41910461 47.3609967 11.55187805 46.60173889 11.68867493 45.81947327 C11.86527649 44.82560608 12.04187805 43.83173889 12.22383118 42.80775452 C12.39785461 41.8216217 12.57187805 40.83548889 12.75117493 39.81947327 C13.28633118 37.12025452 13.28633118 37.12025452 14.28633118 34.12025452 C6.03633118 34.12025452 -2.21366882 34.12025452 -10.71366882 34.12025452 C-9.72366882 30.82025452 -8.73366882 27.52025452 -7.71366882 24.12025452 C6.47633118 24.12025452 20.66633118 24.12025452 35.28633118 24.12025452 C33.03633118 36.49525452 33.03633118 36.49525452 31.55976868 41.44447327 C31.09570618 43.01551819 31.09570618 43.01551819 30.62226868 44.61830139 C30.14660461 46.19708069 30.14660461 46.19708069 29.66133118 47.80775452 C29.33648743 48.90281311 29.01164368 49.9978717 28.67695618 51.12611389 C27.88521866 53.7924064 27.08828243 56.45701991 26.28633118 59.12025452 C19.75768082 59.19671405 13.22914721 59.24902539 6.70014954 59.28504944 C4.48200668 59.30007729 2.26389325 59.32050528 0.04585266 59.34657288 C-3.1540099 59.38322075 -6.35347743 59.4000414 -9.55351257 59.41322327 C-10.53512863 59.42870712 -11.51674469 59.44419098 -12.52810669 59.46014404 C-19.41384072 59.46180337 -26.19446785 58.79692119 -31.83476257 54.50697327 C-36.85203875 48.03066722 -38.54531695 42.29152738 -37.71366882 34.12025452 C-35.81664326 24.12500216 -30.9868983 15.18467006 -23.06913757 8.72181702 C-16.03510851 3.93914385 -8.58127007 -0.0076278 0 0 Z " fill="#5D5D5F" transform="translate(139.7136688232422,18.879745483398438)"/>
<path d="M0 0 C1.13823212 -0.0127597 2.27646423 -0.02551941 3.44918823 -0.03866577 C4.67010162 -0.04089142 5.89101501 -0.04311707 7.14892578 -0.04541016 C8.41261993 -0.05206696 9.67631409 -0.05872375 10.978302 -0.06558228 C13.64974065 -0.07570144 16.32077219 -0.08126559 18.9921875 -0.08007812 C22.40066806 -0.07987506 25.80831369 -0.10717339 29.2165966 -0.14162254 C32.48567434 -0.16932337 35.75474669 -0.1680429 39.02392578 -0.17041016 C40.24079071 -0.18478119 41.45765564 -0.19915222 42.71139526 -0.21395874 C49.4165066 -0.17791071 53.83556587 0.14035895 59.21923828 4.29052734 C61.35534063 7.49468087 61.49193534 8.4090817 61.46923828 12.10302734 C61.47697266 13.35019531 61.47697266 13.35019531 61.48486328 14.62255859 C61.17627018 17.72210403 60.23788686 20.35571682 59.21923828 23.29052734 C58.46006104 23.38551514 57.70088379 23.48050293 56.91870117 23.57836914 C33.23141836 26.10149134 33.23141836 26.10149134 10.96142578 34.00537109 C8.21923828 35.29052734 8.21923828 35.29052734 5.21923828 34.29052734 C17.40899257 27.40977779 29.65719837 23.58431913 43.21923828 20.29052734 C44.77161432 19.90367922 46.32372632 19.51576892 47.87548828 19.12646484 C48.97892578 18.85060547 50.08236328 18.57474609 51.21923828 18.29052734 C34.60669691 21.58664659 34.60669691 21.58664659 18.42626953 26.49365234 C16.37206633 27.23534695 14.34603291 27.80160904 12.21923828 28.29052734 C12.54923828 27.60990234 12.87923828 26.92927734 13.21923828 26.22802734 C14.64050864 22.05304566 14.82821603 18.28354543 13.53173828 14.04052734 C11.68212369 11.57437456 10.04199764 10.54508706 7.21923828 9.29052734 C2.80540705 8.72876701 0.76066527 8.98973457 -3.15576172 11.16552734 C-5.81869366 13.02155543 -5.81869366 13.02155543 -6.78076172 15.29052734 C-7.13108528 20.63296168 -7.23686862 23.93839273 -3.78076172 28.29052734 C-0.86311171 30.23562735 0.84461113 30.74329051 4.21923828 31.29052734 C1.22651735 33.62990779 -1.88621024 35.55018256 -5.15576172 37.47802734 C-10.3307532 40.75552195 -13.67740897 44.03382779 -16.78076172 49.29052734 C-17.39951172 50.32177734 -18.01826172 51.35302734 -18.65576172 52.41552734 C-21.17722675 58.94432072 -20.93587184 67.90913865 -18.65576172 74.47802734 C-18.06931428 75.76710521 -17.43954446 77.03687362 -16.78076172 78.29052734 C-16.33216797 79.17482422 -15.88357422 80.05912109 -15.42138672 80.97021484 C-12.56493688 86.40335913 -9.39329386 91.33707225 -5.78076172 96.29052734 C-9.82229087 96.37799662 -13.86357477 96.43107716 -17.90576172 96.47802734 C-19.04787109 96.50316406 -20.18998047 96.52830078 -21.36669922 96.55419922 C-32.1318409 96.64808127 -32.1318409 96.64808127 -36.78076172 93.29052734 C-40.51822255 87.6843361 -39.3238831 80.3416856 -38.17932129 73.91174316 C-37.33973972 70.39162052 -36.40461411 66.91385374 -35.42138672 63.43115234 C-35.07573669 62.16132507 -34.73008667 60.8914978 -34.3739624 59.58319092 C-33.64758974 56.91811427 -32.91053734 54.25633145 -32.16455078 51.59667969 C-31.21590895 48.21349649 -30.28822497 44.82501711 -29.36771011 41.43408585 C-28.47730726 38.15995133 -27.5742621 34.88937058 -26.67138672 31.61865234 C-26.34205139 30.41533264 -26.01271606 29.21201294 -25.67340088 27.972229 C-20.63386281 10.0428409 -20.63386281 10.0428409 -14.84326172 5.35302734 C-13.87066406 4.53511719 -13.87066406 4.53511719 -12.87841797 3.70068359 C-8.6792143 0.87775524 -5.02492922 0.03837914 0 0 Z " fill="#2B6891" transform="translate(38.78076171875,-0.29052734375)"/>
<path d="M0 0 C0.94074875 0.00007553 1.8814975 0.00015106 2.85075378 0.00022888 C3.86333755 0.00539017 4.87592133 0.01055145 5.91918945 0.01586914 C6.95815872 0.01728409 7.99712799 0.01869904 9.06758118 0.02015686 C12.38924018 0.02575884 15.71083203 0.03831167 19.0324707 0.05102539 C21.28312077 0.05604014 23.5337719 0.06060309 25.78442383 0.06469727 C31.30463204 0.07572891 36.82478998 0.09299488 42.3449707 0.11352539 C41.6849707 3.74352539 41.0249707 7.37352539 40.3449707 11.11352539 C39.36737793 11.12810791 38.38978516 11.14269043 37.38256836 11.15771484 C33.7106706 11.21625466 30.03935095 11.29347673 26.36791992 11.37597656 C24.78728712 11.40896676 23.20654384 11.43707687 21.62573242 11.45996094 C4.43025494 11.59653959 4.43025494 11.59653959 -9.96362305 20.16430664 C-14.77919544 25.71389237 -16.72504361 31.79002848 -16.6550293 39.11352539 C-16.43851607 42.03263999 -16.43851607 42.03263999 -14.6550293 44.11352539 C-8.57753789 46.89590897 -3.28932917 47.622684 3.3449707 47.80102539 C4.21508789 47.83518555 5.08520508 47.8693457 5.98168945 47.90454102 C8.10235885 47.98610522 10.22363961 48.05151067 12.3449707 48.11352539 C12.47774414 47.35426758 12.61051758 46.59500977 12.74731445 45.81274414 C12.92391602 44.81887695 13.10051758 43.82500977 13.2824707 42.80102539 C13.45649414 41.81489258 13.63051758 40.82875977 13.80981445 39.81274414 C14.3449707 37.11352539 14.3449707 37.11352539 15.3449707 34.11352539 C7.0949707 34.11352539 -1.1550293 34.11352539 -9.6550293 34.11352539 C-8.6650293 30.81352539 -7.6750293 27.51352539 -6.6550293 24.11352539 C7.5349707 24.11352539 21.7249707 24.11352539 36.3449707 24.11352539 C34.0949707 36.48852539 34.0949707 36.48852539 32.6184082 41.43774414 C32.1543457 43.00878906 32.1543457 43.00878906 31.6809082 44.61157227 C31.20524414 46.19035156 31.20524414 46.19035156 30.7199707 47.80102539 C30.39512695 48.89608398 30.0702832 49.99114258 29.7355957 51.11938477 C28.94385819 53.78567727 28.14692196 56.45029078 27.3449707 59.11352539 C20.81632035 59.18998493 14.28778674 59.24229627 7.75878906 59.27832031 C5.54064621 59.29334816 3.32253277 59.31377616 1.10449219 59.33984375 C-2.09537037 59.37649163 -5.2948379 59.39331227 -8.49487305 59.40649414 C-9.47648911 59.421978 -10.45810516 59.43746185 -11.46946716 59.45341492 C-18.35520119 59.45507425 -25.13582832 58.79019206 -30.77612305 54.50024414 C-35.79339923 48.02393809 -37.48667742 42.28479825 -36.6550293 34.11352539 C-34.75800373 24.11827303 -29.92825877 15.17794094 -22.01049805 8.71508789 C-15.49208036 4.28299626 -8.01448853 -0.02148656 0 0 Z " fill="#094471" transform="translate(138.655029296875,18.886474609375)"/>
<path d="M0 0 C3.08193978 1.6281946 5.26420667 3.03009062 7.375 5.8125 C8.65575026 10.2951259 8.21442346 14.56978322 7 19 C7.84304687 18.65388672 7.84304687 18.65388672 8.703125 18.30078125 C21.358718 13.38994532 35.36203802 9.34407702 49 9 C45.99718716 11.00187522 44.12709228 11.58532135 40.66015625 12.3671875 C39.59603516 12.61339844 38.53191406 12.85960937 37.43554688 13.11328125 C36.32244141 13.36464844 35.20933594 13.61601562 34.0625 13.875 C8.83445422 19.40390105 8.83445422 19.40390105 -11 35 C-13.72188373 39.54573099 -13.69733546 43.83675018 -13 49 C-9.8129241 59.27290484 -2.51606594 65.29656152 6.68725586 70.20043945 C15.48977292 74.67931516 24.40821041 77.64772779 34 80 C32.67186721 83.1625566 31.60290226 84.68699758 28.51171875 86.20703125 C21.72623452 88.97309717 14.48743466 88.70726297 7.26977539 88.6862793 C4.80587206 88.68750329 2.34777276 88.74758131 -0.11523438 88.81054688 C-11.44110266 88.93967689 -11.44110266 88.93967689 -15.31591797 86.60400391 C-16.8974652 84.81099081 -17.94116957 83.13706137 -19 81 C-19.67546875 79.989375 -20.3509375 78.97875 -21.046875 77.9375 C-26.84388083 67.93899453 -29.40381282 59.68172815 -28 48 C-24.32727346 36.49572423 -17.05918312 30.29629383 -6.6875 24.84765625 C-6.130625 24.56792969 -5.57375 24.28820312 -5 24 C-5.928125 23.566875 -6.85625 23.13375 -7.8125 22.6875 C-11.88042321 20.53389359 -13.54464728 19.36605815 -15 15 C-15.56968464 7.93591048 -15.56968464 7.93591048 -13.25 4.125 C-8.9815747 0.09370944 -5.92884333 -0.61332862 0 0 Z " fill="#EAEBED" transform="translate(46,8)"/>
<path d="M0 0 C19.14 0 38.28 0 58 0 C57.01 3.63 56.02 7.26 55 11 C39.49 11 23.98 11 8 11 C7.34 14.63 6.68 18.26 6 22 C5.46241209 24.19064809 4.89311117 26.37411091 4.2734375 28.54296875 C3.99419434 29.53063232 3.71495117 30.5182959 3.42724609 31.53588867 C2.90638428 33.34343628 2.90638428 33.34343628 2.375 35.1875 C1.26125 39.085625 0.1475 42.98375 -1 47 C13.19 47 27.38 47 42 47 C41 55 41 55 39 59 C21.18 59 3.36 59 -15 59 C-12.75 46.625 -12.75 46.625 -11.57958984 42.3449707 C-11.315896 41.3717688 -11.05220215 40.39856689 -10.78051758 39.39587402 C-10.37482544 37.9256781 -10.37482544 37.9256781 -9.9609375 36.42578125 C-9.70739502 35.49326538 -9.45385254 34.56074951 -9.19262695 33.59997559 C-8.25846155 30.16943966 -7.31628074 26.74109042 -6.375 23.3125 C-4.27125 15.619375 -2.1675 7.92625 0 0 Z " fill="#5D5E60" transform="translate(302,19)"/>
<path d="M0 0 C0.99261337 0.00222061 1.98522675 0.00444122 3.00791931 0.00672913 C4.12900589 0.00680466 5.25009247 0.00688019 6.40515137 0.00695801 C8.2348069 0.01469994 8.2348069 0.01469994 10.10142517 0.02259827 C11.96377052 0.02472069 11.96377052 0.02472069 13.86373901 0.02688599 C17.16982383 0.03154861 20.47584039 0.04053955 23.78190613 0.05158997 C27.15338042 0.06180625 30.52486175 0.06638407 33.89634705 0.07142639 C40.51550667 0.08248056 47.13463385 0.09923715 53.75376892 0.12025452 C53.44594396 1.76696864 53.13237658 3.41261028 52.81626892 5.05775452 C52.64224548 5.97427795 52.46822205 6.89080139 52.28892517 7.83509827 C51.75376892 10.12025452 51.75376892 10.12025452 50.75376892 11.12025452 C49.26505032 11.20694884 47.77232392 11.22728945 46.28111267 11.21791077 C45.38199158 11.21468811 44.48287048 11.21146545 43.5565033 11.20814514 C42.61097595 11.19976624 41.66544861 11.19138733 40.69126892 11.18275452 C39.74187439 11.1782428 38.79247986 11.17373108 37.8143158 11.16908264 C35.46073827 11.15725562 33.10728415 11.14077477 30.75376892 11.12025452 C30.62639343 11.9774408 30.62639343 11.9774408 30.4964447 12.85194397 C28.90750487 22.5169231 26.22426291 31.87673723 23.62876892 41.30775452 C23.15568807 43.04006049 22.68302845 44.77248156 22.21080017 46.50502014 C21.06407944 50.71167462 19.90876064 54.91582894 18.75376892 59.12025452 C12.81376892 59.12025452 6.87376892 59.12025452 0.75376892 59.12025452 C1.87876892 50.12025452 1.87876892 50.12025452 2.87705994 46.54017639 C3.09721268 45.73995056 3.31736542 44.93972473 3.54418945 44.11524963 C3.77963974 43.28158875 4.01509003 42.44792786 4.25767517 41.58900452 C4.50041672 40.7124823 4.74315826 39.83596008 4.99325562 38.93287659 C5.76232243 36.16050466 6.53915872 33.39038131 7.31626892 30.62025452 C7.84217645 28.72977324 8.36757221 26.83914951 8.8924408 24.94837952 C10.17363879 20.33733639 11.46180467 15.7282921 12.75376892 11.12025452 C7.14376892 11.12025452 1.53376892 11.12025452 -4.24623108 11.12025452 C-3.27643452 0.17540762 -3.27643452 0.17540762 0 0 Z " fill="#D51424" transform="translate(183.24623107910156,18.879745483398438)"/>
<path d="M0 0 C18.81 0 37.62 0 57 0 C55 10 55 10 54 11 C52.00035018 11.08758003 49.9976389 11.10696576 47.99609375 11.09765625 C46.78115234 11.09443359 45.56621094 11.09121094 44.31445312 11.08789062 C43.03505859 11.07951172 41.75566406 11.07113281 40.4375 11.0625 C39.15423828 11.05798828 37.87097656 11.05347656 36.54882812 11.04882812 C33.36583978 11.03699545 30.18294238 11.02051068 27 11 C26.8040625 11.87914062 26.608125 12.75828125 26.40625 13.6640625 C24.25260941 23.13958344 21.8505448 32.54651683 19.359375 41.93817139 C18.99413798 43.31518834 18.63004676 44.69250969 18.26708984 46.07012939 C17.75080936 48.02690994 17.22903224 49.98223772 16.70703125 51.9375 C16.4025708 53.08089844 16.09811035 54.22429687 15.78442383 55.40234375 C15 58 15 58 14 59 C12.31391034 59.07205511 10.62499341 59.08386068 8.9375 59.0625 C8.01839844 59.05347656 7.09929687 59.04445312 6.15234375 59.03515625 C5.44207031 59.02355469 4.73179687 59.01195312 4 59 C7.51936557 43.20916238 11.7865825 27.61623428 16 12 C10.06 11.67 4.12 11.34 -2 11 C-1 3 -1 3 0 0 Z " fill="#5D5E60" transform="translate(363,19)"/>
<path d="M0 0 C4.54197646 2.65662774 7.94617534 6.20485068 10.3125 10.9375 C11.13837481 17.28493779 10.55055312 21.98945655 6.8125 27.24609375 C3.42646654 31.06419919 -0.63477754 33.58280272 -5.73828125 34.17578125 C-11.28668193 34.35785312 -14.38418974 33.76266468 -18.6875 29.9375 C-22.83096619 25.88928591 -25.09175416 22.37767928 -25.4375 16.5 C-25.08496632 10.46495917 -22.77732105 6.30937767 -18.6875 1.9375 C-12.89308952 -2.31173436 -6.64486638 -1.91462252 0 0 Z " fill="#DADBDB" transform="translate(74.6875,40.0625)"/>
<path d="M0 0 C0.03738281 0.9178125 0.07476563 1.835625 0.11328125 2.78125 C0.4845548 9.71168953 0.83898324 15.77560407 4 22 C4.44730469 22.88429688 4.89460938 23.76859375 5.35546875 24.6796875 C8.21775098 30.10992988 11.38720039 35.04617816 15 40 C10.95847085 40.08746928 6.91718695 40.14054982 2.875 40.1875 C1.73289062 40.21263672 0.59078125 40.23777344 -0.5859375 40.26367188 C-11.35107918 40.35755392 -11.35107918 40.35755392 -16 37 C-18.36543381 33.45184929 -18.26923313 31.82743868 -18.25 27.625 C-18.25515625 26.50351563 -18.2603125 25.38203125 -18.265625 24.2265625 C-17.83734222 19.02418632 -16.12357343 15.76642992 -12.55859375 12.01171875 C-11.89279297 11.30595703 -11.22699219 10.60019531 -10.54101562 9.87304688 C-9.84685547 9.15181641 -9.15269531 8.43058594 -8.4375 7.6875 C-7.73947266 6.94693359 -7.04144531 6.20636719 -6.32226562 5.44335938 C-1.14981999 0 -1.14981999 0 0 0 Z " fill="#0D4673" transform="translate(18,56)"/>
<path d="M0 0 C2.97 0 5.94 0 9 0 C8.37988999 6.12088686 7.12687554 11.82437395 5.49609375 17.75 C5.2533522 18.64871826 5.01061066 19.54743652 4.76051331 20.47338867 C3.99122728 23.31699095 3.21449284 26.15849503 2.4375 29 C1.91161409 30.9386678 1.38621851 32.87746868 0.86132812 34.81640625 C-0.42011634 39.5458286 -1.70824051 44.27338509 -3 49 C-5.97 49 -8.94 49 -12 49 C-11.4012253 42.81266144 -10.04174386 37.19207623 -8.25 31.25 C-5.20519144 20.90117627 -2.54442372 10.48167471 0 0 Z " fill="#A41D20" transform="translate(205,29)"/>
<path d="M0 0 C2.29109597 -0.08075665 4.58299267 -0.13907731 6.875 -0.1875 C8.78925781 -0.23970703 8.78925781 -0.23970703 10.7421875 -0.29296875 C11.81726563 -0.19628906 12.89234375 -0.09960938 14 0 C14.66 0.99 15.32 1.98 16 3 C16.33 2.01 16.66 1.02 17 0 C20.375 -0.1875 20.375 -0.1875 24 0 C24.66 0.99 25.32 1.98 26 3 C26.66 2.01 27.32 1.02 28 0 C30.62462244 -0.26697888 33.01065933 -0.34832984 35.6328125 -0.29296875 C36.76056595 -0.28660149 36.76056595 -0.28660149 37.91110229 -0.28010559 C40.31609685 -0.2632917 42.72025809 -0.22563624 45.125 -0.1875 C46.75389416 -0.17245659 48.38280144 -0.15876758 50.01171875 -0.14648438 C54.00813434 -0.11337954 58.00392582 -0.06158009 62 0 C62 0.66 62 1.32 62 2 C60.68 2 59.36 2 58 2 C57.34 4.31 56.68 6.62 56 9 C55.01 9 54.02 9 53 9 C53.66 6.69 54.32 4.38 55 2 C53.54119891 2.14107747 52.08296449 2.28802415 50.625 2.4375 C49.81289063 2.51871094 49.00078125 2.59992188 48.1640625 2.68359375 C45.95727195 2.89090114 45.95727195 2.89090114 44 4 C44 4.66 44 5.32 44 6 C46.475 6.495 46.475 6.495 49 7 C49 7.66 49 8.32 49 9 C46.03 9 43.06 9 40 9 C40 8.01 40 7.02 40 6 C38.35425434 5.97311849 36.70838587 5.95365877 35.0625 5.9375 C34.14597656 5.92589844 33.22945313 5.91429688 32.28515625 5.90234375 C30.03406673 5.74050951 30.03406673 5.74050951 29 7 C32.3 7 35.6 7 39 7 C38.67 7.66 38.34 8.32 38 9 C35.70858714 9.05384521 33.41681812 9.09272087 31.125 9.125 C29.21074219 9.15980469 29.21074219 9.15980469 27.2578125 9.1953125 C24 9 24 9 22 7 C21.67 7.66 21.34 8.32 21 9 C18.69 9 16.38 9 14 9 C13.67 8.01 13.34 7.02 13 6 C12.34 6 11.68 6 11 6 C10.67 6.99 10.34 7.98 10 9 C6.04 9 2.08 9 -2 9 C-1.125 2.25 -1.125 2.25 0 0 Z M3 2 C2.34 3.32 1.68 4.64 1 6 C1.99 6.495 1.99 6.495 3 7 C3.99 6.01 4.98 5.02 6 4 C5.67 3.34 5.34 2.68 5 2 C4.34 2 3.68 2 3 2 Z M30 2 C30 2.33 30 2.66 30 3 C33.63 3.33 37.26 3.66 41 4 C41 3.34 41 2.68 41 2 C37.37 2 33.74 2 30 2 Z " fill="#C92325" transform="translate(337,87)"/>
<path d="M0 0 C12.21 0 24.42 0 37 0 C36.34 3.3 35.68 6.6 35 10 C22.79 10 10.58 10 -2 10 C-1 3 -1 3 0 0 Z " fill="#5D5E60" transform="translate(315,43)"/>
<path d="M0 0 C0 0.33 0 0.66 0 1 C-0.6290625 1.13535156 -1.258125 1.27070313 -1.90625 1.41015625 C-9.4896097 3.3174169 -14.80122951 6.44754693 -19.34765625 12.91796875 C-22.49838544 18.57572977 -23.53532556 24.48214633 -22.5625 30.875 C-20.14845216 34.15810506 -16.82018264 34.90725008 -13 36 C-13 36.33 -13 36.66 -13 37 C-20.33911411 37.39870439 -26.14162386 37.36052116 -31.9375 32.3125 C-34.31734637 27.13283437 -33.30717002 22.20199777 -31.5625 17 C-28.16849671 9.28635616 -22.22055166 4.59688327 -14.5 1.5 C-9.50374215 -0.10669505 -5.2168996 -0.34209178 0 0 Z " fill="#0B3C60" transform="translate(145,30)"/>
<path d="M0 0 C2.97 0 5.94 0 9 0 C7.71867422 8.10060211 5.73928433 15.84019042 3.375 23.6875 C3.05015625 24.78255859 2.7253125 25.87761719 2.390625 27.00585938 C1.59888749 29.67215188 0.80195126 32.33676539 0 35 C-2.97 35 -5.94 35 -9 35 C-6.11207362 23.3030915 -3.08857969 11.6454644 0 0 Z " fill="#0C3C61" transform="translate(166,43)"/>
<path d="M0 0 C2.29109597 -0.08075665 4.58299267 -0.13907731 6.875 -0.1875 C8.78925781 -0.23970703 8.78925781 -0.23970703 10.7421875 -0.29296875 C11.81726563 -0.19628906 12.89234375 -0.09960938 14 0 C14.66 0.99 15.32 1.98 16 3 C16.66 2.01 17.32 1.02 18 0 C18.99 0 19.98 0 21 0 C20.67 1.65 20.34 3.3 20 5 C20.99 5 21.98 5 23 5 C23 5.66 23 6.32 23 7 C25.52588702 4.63707344 26.88820837 3.33537489 28 0 C32.29 0 36.58 0 41 0 C40.25 6.75 40.25 6.75 38 9 C36.125 9.1953125 36.125 9.1953125 34 9.125 C32.948125 9.09792969 32.948125 9.09792969 31.875 9.0703125 C31.25625 9.04710938 30.6375 9.02390625 30 9 C28.2706745 9 26.54140491 9.03217489 24.8125 9.0703125 C22.9253125 9.09738281 22.9253125 9.09738281 21 9.125 C19.741875 9.14820312 18.48375 9.17140625 17.1875 9.1953125 C14 9 14 9 12 7 C11.67 7.66 11.34 8.32 11 9 C6.38 9 1.76 9 -3 9 C-2.34 8.01 -1.68 7.02 -1 6 C-1 5.01 -1 4.02 -1 3 C-0.28972656 3.01160156 0.42054688 3.02320312 1.15234375 3.03515625 C2.07144531 3.04417969 2.99054688 3.05320312 3.9375 3.0625 C5.31228516 3.07990234 5.31228516 3.07990234 6.71484375 3.09765625 C8.96593327 3.25949049 8.96593327 3.25949049 10 2 C6.7 2 3.4 2 0 2 C0 1.34 0 0.68 0 0 Z M35 2 C34.34 3.32 33.68 4.64 33 6 C33.99 6.495 33.99 6.495 35 7 C35.99 6.01 36.98 5.02 38 4 C37.67 3.34 37.34 2.68 37 2 C36.34 2 35.68 2 35 2 Z " fill="#B81C20" transform="translate(271,87)"/>
<path d="M0 0 C8.91 0 17.82 0 27 0 C27 0.66 27 1.32 27 2 C26.01 2.33 25.02 2.66 24 3 C24.185625 3.61875 24.37125 4.2375 24.5625 4.875 C25 7 25 7 24 9 C20.7 9 17.4 9 14 9 C14 8.34 14 7.68 14 7 C14.99 6.67 15.98 6.34 17 6 C15.68 5.34 14.36 4.68 13 4 C13 3.34 13 2.68 13 2 C11.68 2 10.36 2 9 2 C8.34 4.31 7.68 6.62 7 9 C5.68 8.67 4.36 8.34 3 8 C3.66 6.35 4.32 4.7 5 3 C4.34 2.67 3.68 2.34 3 2 C2.01 4.31 1.02 6.62 0 9 C-1.32 8.67 -2.64 8.34 -4 8 C-2.68 5.36 -1.36 2.72 0 0 Z " fill="#D32828" transform="translate(217,87)"/>
<path d="M0 0 C6.6 0 13.2 0 20 0 C19 6 19 6 17 9 C14.93701172 9.34057617 14.93701172 9.34057617 12.4296875 9.29296875 C11.53378906 9.28330078 10.63789063 9.27363281 9.71484375 9.26367188 C8.30912109 9.2259668 8.30912109 9.2259668 6.875 9.1875 C5.45767578 9.16719727 5.45767578 9.16719727 4.01171875 9.14648438 C1.67391221 9.11106306 -0.66276237 9.06167271 -3 9 C-3 8.34 -3 7.68 -3 7 C-2.28972656 7.01160156 -1.57945312 7.02320312 -0.84765625 7.03515625 C0.07144531 7.04417969 0.99054688 7.05320312 1.9375 7.0625 C3.31228516 7.07990234 3.31228516 7.07990234 4.71484375 7.09765625 C6.96593327 7.25949049 6.96593327 7.25949049 8 6 C4.7 6 1.4 6 -2 6 C-1.34 4.02 -0.68 2.04 0 0 Z M13 2 C12.34 3.65 11.68 5.3 11 7 C12.32 6.67 13.64 6.34 15 6 C15.33 4.68 15.66 3.36 16 2 C15.01 2 14.02 2 13 2 Z " fill="#DD2C2C" transform="translate(400,87)"/>
<path d="M0 0 C2.05078125 0.03255208 4.1015625 0.06510417 6.15234375 0.09765625 C5.49234375 3.72765625 4.83234375 7.35765625 4.15234375 11.09765625 C1.18234375 11.09765625 -1.78765625 11.09765625 -4.84765625 11.09765625 C-4.53983129 9.45094213 -4.22626391 7.80530049 -3.91015625 6.16015625 C-3.73613281 5.24363281 -3.56210938 4.32710937 -3.3828125 3.3828125 C-2.62306609 0.13863986 -2.62306609 0.13863986 0 0 Z " fill="#113C5F" transform="translate(174.84765625,18.90234375)"/>
<path d="M0 0 C4.62 0 9.24 0 14 0 C7.08792373 8.14088983 7.08792373 8.14088983 5 10 C4.34 10 3.68 10 3 10 C2.01 6.7 1.02 3.4 0 0 Z " fill="#A41E20" transform="translate(261,19)"/>
<path d="M0 0 C1.37478516 0.01740234 1.37478516 0.01740234 2.77734375 0.03515625 C3.69644531 0.04417969 4.61554688 0.05320312 5.5625 0.0625 C6.27277344 0.07410156 6.98304688 0.08570312 7.71484375 0.09765625 C7.22242188 0.53851563 6.73 0.979375 6.22265625 1.43359375 C4.43854909 3.04839036 4.43854909 3.04839036 4.58984375 5.72265625 C4.65171875 6.89828125 4.65171875 6.89828125 4.71484375 8.09765625 C3.71484375 9.09765625 3.71484375 9.09765625 1.4296875 9.1953125 C0.05490234 9.17791016 0.05490234 9.17791016 -1.34765625 9.16015625 C-2.26675781 9.15113281 -3.18585938 9.14210938 -4.1328125 9.1328125 C-4.84308594 9.12121094 -5.55335938 9.10960938 -6.28515625 9.09765625 C-5.79273438 8.65679687 -5.3003125 8.2159375 -4.79296875 7.76171875 C-3.00886159 6.14692214 -3.00886159 6.14692214 -3.16015625 3.47265625 C-3.22203125 2.29703125 -3.22203125 2.29703125 -3.28515625 1.09765625 C-2.28515625 0.09765625 -2.28515625 0.09765625 0 0 Z " fill="#C62224" transform="translate(250.28515625,86.90234375)"/>
<path d="M0 0 C2.01822917 0.06510417 4.03645833 0.13020833 6.0546875 0.1953125 C5.3046875 6.9453125 5.3046875 6.9453125 3.0546875 9.1953125 C0.36629365 9.46523156 -2.23673186 9.28268607 -4.9453125 9.1953125 C-3.96787568 0.39838109 -3.96787568 0.39838109 0 0 Z M0.0546875 2.1953125 C-0.6053125 3.5153125 -1.2653125 4.8353125 -1.9453125 6.1953125 C-0.9553125 6.6903125 -0.9553125 6.6903125 0.0546875 7.1953125 C1.0446875 6.2053125 2.0346875 5.2153125 3.0546875 4.1953125 C2.7246875 3.5353125 2.3946875 2.8753125 2.0546875 2.1953125 C1.3946875 2.1953125 0.7346875 2.1953125 0.0546875 2.1953125 Z " fill="#C11F23" transform="translate(260.9453125,86.8046875)"/>
<path d="M0 0 C2.1640625 -0.29296875 2.1640625 -0.29296875 4.625 -0.1875 C5.44226563 -0.16042969 6.25953125 -0.13335937 7.1015625 -0.10546875 C8.04128906 -0.05326172 8.04128906 -0.05326172 9 0 C9 0.66 9 1.32 9 2 C7.2984375 2.4021875 7.2984375 2.4021875 5.5625 2.8125 C4.386875 3.204375 3.21125 3.59625 2 4 C1.67 4.99 1.34 5.98 1 7 C2.98 7 4.96 7 7 7 C6.67 7.66 6.34 8.32 6 9 C3.03 9 0.06 9 -3 9 C-2.5020163 5.26512223 -2.12508244 3.18762365 0 0 Z " fill="#B91D21" transform="translate(327,87)"/>
<path d="M0 0 C-1.49515742 2.99031485 -3.92652894 3.18105755 -6.93554688 4.2109375 C-7.71994141 4.47132812 -8.50433594 4.73171875 -9.3125 5 C-10.85107595 5.51841925 -12.38886466 6.03918188 -13.92578125 6.5625 C-14.61067627 6.79066406 -15.29557129 7.01882812 -16.0012207 7.25390625 C-18.05895108 7.96480065 -18.05895108 7.96480065 -20.06713867 9.15234375 C-22 10 -22 10 -25 9 C-22.48287811 7.70064536 -19.96170913 6.41045628 -17.4375 5.125 C-16.73302734 4.76019531 -16.02855469 4.39539063 -15.30273438 4.01953125 C-3.71195652 -1.85597826 -3.71195652 -1.85597826 0 0 Z " fill="#517AA0" transform="translate(69,25)"/>
<path d="M0 0 C0.804375 0.185625 1.60875 0.37125 2.4375 0.5625 C3.283125 0.706875 4.12875 0.85125 5 1 C5.33 0.67 5.66 0.34 6 0 C7.66617115 -0.04063832 9.33388095 -0.042721 11 0 C10.21625 0.7425 9.4325 1.485 8.625 2.25 C6.43495469 4.54433318 5.17268614 6.12158858 4 9 C3.01 9 2.02 9 1 9 C0.67 6.03 0.34 3.06 0 0 Z " fill="#B51C20" transform="translate(313,87)"/>
<path d="M0 0 C0.99 0.33 1.98 0.66 3 1 C2.01 3.64 1.02 6.28 0 9 C-1.32 8.67 -2.64 8.34 -4 8 C-2.68 5.36 -1.36 2.72 0 0 Z " fill="#E12E2D" transform="translate(217,87)"/>
<path d="M0 0 C-1 2 -1 2 -3.28515625 2.8515625 C-4.65994141 3.23441406 -4.65994141 3.23441406 -6.0625 3.625 C-6.98160156 3.88539062 -7.90070312 4.14578125 -8.84765625 4.4140625 C-9.55792969 4.60742188 -10.26820312 4.80078125 -11 5 C-10.21875 3.08203125 -10.21875 3.08203125 -9 1 C-2.71428571 -1.35714286 -2.71428571 -1.35714286 0 0 Z " fill="#4A759B" transform="translate(69,25)"/>
</svg>
